<svg width="40" height="40" viewBox="0 0 40 40" fill="none" xmlns="http://www.w3.org/2000/svg">
<path d="M1.03086 5.79648C0.394219 6.43304 0 7.31195 0 8.28124V31.7187C0 32.688 0.394219 33.5669 1.03086 34.2035L2.81984 33.5864L15.4724 20.9338L15.2344 20L15.3848 18.9785L3.58852 7.18226L1.03086 5.79648Z" fill="#FEA832"/>
<path d="M24.7657 20L24.57 20.9762L36.7149 33.1211L38.9692 34.2035C39.6058 33.5669 40 32.688 40 31.7187V8.28124C40 7.31195 39.6058 6.43304 38.9692 5.79648L36.9055 6.68828L24.491 19.1028L24.7657 20Z" fill="#FE9923"/>
<path d="M38.9689 34.2031C38.336 34.8359 37.4451 35.2344 36.4843 35.2344H3.5156C2.5549 35.2344 1.66396 34.8359 1.03107 34.2031L15.2343 20L15.9376 19.5312L18.3336 21.837C19.3025 22.7692 20.8393 22.7545 21.79 21.8038L23.7344 19.8594L24.7656 20L38.9689 34.2031Z" fill="#FFCC33"/>
<path d="M38.9689 34.2031L24.7657 20L23.7346 19.8594L21.7901 21.8038C21.2973 22.2966 20.6471 22.5372 20.0001 22.5255V35.2344H36.4845C37.4451 35.2344 38.3361 34.8359 38.9689 34.2031Z" fill="#FEA832"/>
<path d="M38.9689 5.79687L21.816 22.9496C20.855 23.9106 19.2979 23.9138 18.333 22.9568L1.03107 5.79687C1.66396 5.16398 2.5549 4.76562 3.5156 4.76562H36.4843C37.4451 4.76562 38.336 5.16398 38.9689 5.79687Z" fill="#FEDB41"/>
<path d="M36.4844 4.76562H20V23.6708C20.6552 23.6895 21.3163 23.4495 21.8161 22.9496L38.9689 5.79688C38.336 5.16406 37.4451 4.76562 36.4844 4.76562Z" fill="#FFCC33"/>
</svg>
