<svg width="40" height="40" viewBox="0 0 40 40" fill="none" xmlns="http://www.w3.org/2000/svg">
<g clip-path="url(#clip0)">
<path d="M24.784 0.654327L18.4582 1.6319L9.40013 6.88675L5.28278 22.0156L13.6436 32.4673L21.4353 37.1373L23.9938 35.6047L24.6784 34.7983C32.1901 32.7462 37.712 25.8745 37.712 17.712C37.712 9.58774 32.242 2.74171 24.784 0.654327Z" fill="#EE6161"/>
<path d="M23.1018 35.3441C15.4871 33.3145 9.89018 26.3396 9.96371 18.0684C10.0422 9.23097 16.5249 1.99117 24.9993 0.716669C23.4137 0.250998 21.7363 -1.52588e-05 20 -1.52588e-05C10.2525 -1.52588e-05 2.37524 7.80384 2.28868 17.5511C2.21524 25.8222 7.81211 32.7971 15.4268 34.8267L19.6736 39.8301C19.8658 40.0566 20.2153 40.0566 20.4075 39.8301L23.9938 35.6047L23.1018 35.3441Z" fill="#E94444"/>
<path d="M20.0001 30.2363C26.917 30.2363 32.5243 24.629 32.5243 17.712C32.5243 10.795 26.917 5.18771 20.0001 5.18771C13.0831 5.18771 7.47577 10.795 7.47577 17.712C7.47577 24.629 13.0831 30.2363 20.0001 30.2363Z" fill="#F9F7F8"/>
<path d="M11.6476 17.712C11.6476 11.5058 16.1642 6.35428 22.0881 5.36099C21.4096 5.24723 20.7109 5.18771 20 5.18771C13.083 5.18771 7.47571 10.795 7.47571 17.712C7.47571 24.629 13.083 30.2363 20 30.2363C20.7108 30.2363 21.4096 30.1768 22.0881 30.063C16.1642 29.0698 11.6476 23.9182 11.6476 17.712Z" fill="#EFEDEF"/>
<path d="M26.059 23.1301V14.4946L20.0001 9.77527L13.9412 14.293V23.1301H26.059Z" fill="#FDE6BF"/>
<path d="M20.0001 9.77525L15.8654 12.8583V14.467H13.9412V23.1302H16.4597V17.1269C16.4597 16.7426 16.6331 16.3789 16.9314 16.1368L19.6536 13.9289C19.8555 13.7651 20.1447 13.7651 20.3467 13.9289L25.529 18.1323C25.6912 18.2639 25.8699 18.3718 26.059 18.4556V14.4948L20.0001 9.77525Z" fill="#FDD79B"/>
<path d="M26.5493 16.8747L20 11.5625L13.4507 16.8747C13.1344 17.1313 12.67 17.0828 12.4135 16.7666L11.8123 16.0253C11.5558 15.7091 11.6042 15.2447 11.9205 14.9882L19.2349 9.05533C19.6808 8.69355 20.3192 8.69355 20.7651 9.05533L28.0795 14.9882C28.3958 15.2447 28.4442 15.7091 28.1877 16.0253L27.5865 16.7666C27.33 17.0828 26.8656 17.1313 26.5493 16.8747Z" fill="#D77F4A"/>
<path d="M22.0749 23.1289V22.0258C22.0749 20.8799 21.146 19.951 20.0001 19.951C18.8541 19.951 17.9252 20.8799 17.9252 22.0258V23.1289H22.0749Z" fill="#FCCD7F"/>
<path d="M22.0749 17.0033H17.9252C17.5898 17.0033 17.3179 16.7314 17.3179 16.396C17.3179 16.0605 17.5898 15.7887 17.9252 15.7887H22.0749C22.4103 15.7887 22.6822 16.0605 22.6822 16.396C22.6822 16.7314 22.4103 17.0033 22.0749 17.0033Z" fill="#FCCD7F"/>
<path d="M26.8516 23.7374H13.1514C12.816 23.7374 12.5441 23.4655 12.5441 23.1301C12.5441 22.7946 12.816 22.5228 13.1514 22.5228H26.8516C27.1871 22.5228 27.4589 22.7946 27.4589 23.1301C27.4589 23.4655 27.1871 23.7374 26.8516 23.7374Z" fill="#E5E1E5"/>
</g>
<defs>
<clipPath id="clip0">
<rect width="40" height="40" fill="white"/>
</clipPath>
</defs>
</svg>
